<?xml version="1.0" encoding="utf-8"?>
<!-- Generator: Adobe Illustrator 24.2.3, SVG Export Plug-In . SVG Version: 6.00 Build 0)  -->
<svg version="1.1" id="Layer_1" xmlns="http://www.w3.org/2000/svg" xmlns:xlink="http://www.w3.org/1999/xlink" x="0px" y="0px"
	 viewBox="0 0 180 60" style="enable-background:new 0 0 180 60;" xml:space="preserve">
<style type="text/css">
	.st0{fill:#F5F5F5;}
	.st1{fill:#FF2575;}
</style>
<path class="st0" d="M6.7,41h-4V22.8c0-3,1.7-4.9,5.2-4.9c3.2,0,4.6,1.6,5.5,4.2L20,36.6c0.2,0.6,0.8,0.9,1.4,0.9
	c0.7,0.1,1.3-0.4,1.3-1.1c0-0.1,0-0.1,0-0.2V18.3h4v18.1c0,3-1.7,5-5.2,5c-3.2,0-4.6-1.6-5.5-4.2L9.5,22.7c-0.2-0.6-0.8-1-1.4-1
	c-0.7-0.1-1.3,0.4-1.4,1c0,0.1,0,0.2,0,0.3L6.7,41z"/>
<path class="st0" d="M33.1,41h-4.3l8-20.1c0.8-2.1,2.4-2.9,4.8-2.9c2.4,0,3.9,0.8,4.7,2.9L53.8,41h-4.4l-6.9-18.2
	c-0.1-0.5-0.6-0.8-1.1-0.8c-0.5,0-1,0.3-1.1,0.8L33.1,41z"/>
<path class="st0" d="M74.7,18.3v4H63.1c-2.1,0-3,1.1-3,2.7c0,1.4,0.7,2.7,3.4,2.7h5.3c6.2,0,7.6,3.4,7.6,6.7c0,3.8-2.1,6.7-7.2,6.7
	H56.6v-4h12.8c2.2,0,3.1-1.2,3.1-2.8c0-1.5-0.8-2.8-3.6-2.8h-5.3c-6,0-7.5-3.4-7.5-6.5c0-3.7,2-6.5,7.1-6.5L74.7,18.3z"/>
<path class="st0" d="M87,20.8L79,41h4.4l7.2-18.2c0.2-0.4,0.5-0.7,1-0.8v-4.1C89.3,17.9,87.8,18.8,87,20.8z"/>
<path class="st1" d="M118.7,18.3c5.1,0,7.3,3.2,7.3,6.8c0,3.4-2,7.1-7.3,7.1h-7.1c-0.3,0-0.5,0.2-0.6,0.4c0,0.1,0,0.1,0,0.2V41h-4
	v-9c0-2.6,1.1-3.6,3.6-3.6h8.2c1.6,0.1,3-1.1,3.1-2.7c0-0.1,0-0.3,0-0.4c0.1-1.5-1-2.9-2.5-3c-0.2,0-0.4,0-0.6,0h-11.8v-4H118.7z"/>
<path class="st1" d="M142.4,18.3c6.6,0,10.3,3.7,10.3,11.4S149.1,41,142.4,41h-3.1c-6.6,0-10.3-3.7-10.3-11.3s3.7-11.4,10.3-11.4
	H142.4z M139.3,22.3c-4.4,0-6.3,2.2-6.3,7.5s1.9,7.3,6.3,7.3h3.1c4.4,0,6.2-2.1,6.2-7.4s-1.9-7.4-6.2-7.4L139.3,22.3z"/>
<path class="st1" d="M167.2,18.3c6.6,0,10.2,3.7,10.2,11.4S173.9,41,167.2,41h-8c-0.9,0.1-1.7-0.5-1.9-1.4c0-0.2,0-0.3,0-0.5v-19
	c-0.1-0.9,0.5-1.7,1.4-1.9c0.2,0,0.3,0,0.5,0L167.2,18.3z M161.3,36.6c0,0.3,0.1,0.4,0.4,0.4h5.5c4.4,0,6.2-2.2,6.2-7.4
	s-1.9-7.4-6.2-7.4h-5.5c-0.3,0-0.4,0.1-0.4,0.4L161.3,36.6z"/>
<path class="st1" d="M96.4,20.8c-0.8-2.1-2.4-2.9-4.7-2.9h-0.2V22h0.1c0.5,0,1,0.3,1.1,0.8L99.7,41h4.4L96.4,20.8z"/>
</svg>
